<svg xmlns="http://www.w3.org/2000/svg" viewBox="0 0 64 64" role="img" aria-label="WHITELINEZ Favicon">
  <rect width="64" height="64" rx="10" fill="#0d0f14"/>

  <path d="M10 9H5v5M54 9h5v5M5 50v5h5M54 55h5v-5" stroke="#FFD600" stroke-width="3" stroke-linecap="round" stroke-linejoin="round"/>
  <rect x="6" y="6" width="16" height="8" rx="2" fill="#FFD600"/>
  <text x="9" y="12.5" font-family="Arial,Helvetica,sans-serif" font-size="5.3" font-weight="700" fill="#111">CAR</text>

  <circle cx="20" cy="42" r="5.2" fill="#333" stroke="#666" stroke-width="0.8"/>
  <circle cx="44" cy="42" r="5.2" fill="#333" stroke="#666" stroke-width="0.8"/>
  <circle cx="20" cy="42" r="1.8" fill="#666"/>
  <circle cx="44" cy="42" r="1.8" fill="#666"/>

  <rect x="12" y="33" width="40" height="9" rx="2" fill="#d3d8df"/>
  <polygon points="18,24 36,24 44,33 12,33" fill="#d3d8df"/>

  <polygon points="19,25 24,25 24,32 13.5,32" fill="#4a6888" opacity="0.85"/>
  <polygon points="25,25 31,25 32,32 25,32" fill="#4a6888" opacity="0.85"/>
  <polygon points="32,25 35,25 41,32 33,32" fill="#4a6888" opacity="0.85"/>
</svg>
